<svg id="svg" version="1.1" xmlns="http://www.w3.org/2000/svg" style="display: block;" viewBox="0 0 216 373"><path d="M0,0 L216,0 L216,373 L0,373 Z " transform="translate(0,0)" style="fill: #2F2F2F;"/><path d="M0,0 L216,0 L216,373 L0,373 Z M67,3 L67,35 L4,35 L4,292 L68,292 L68,369 L80,369 L80,292 L79,292 L79,283 L105,283 L105,292 L103,292 L103,369 L115,369 L115,292 L114,292 L114,283 L140,283 L140,292 L139,292 L139,369 L151,369 L151,292 L212,292 L212,35 L149,35 L149,3 Z " transform="translate(0,0)" style="fill: #000000;"/><path d="M0,0 L82,0 L82,32 L145,32 L145,34 L101,34 L101,35 L102,35 L102,36 L103,36 L103,38 L104,38 L104,39 L106,39 L106,41 L107,41 L107,52 L106,52 L106,55 L104,55 L104,56 L103,56 L103,57 L102,57 L102,59 L99,59 L99,60 L89,60 L89,59 L86,59 L86,57 L85,57 L85,56 L84,56 L84,55 L82,55 L82,78 L73,78 L73,82 L76,82 L76,83 L78,83 L78,85 L81,85 L81,86 L82,86 L82,87 L84,87 L84,90 L85,90 L85,93 L86,93 L86,99 L85,99 L85,103 L84,103 L84,104 L82,104 L82,130 L84,130 L84,129 L85,129 L85,128 L87,128 L87,127 L90,127 L90,125 L104,125 L104,127 L107,127 L107,128 L108,128 L108,129 L110,129 L110,130 L111,130 L111,132 L112,132 L112,133 L114,133 L114,136 L115,136 L115,140 L116,140 L116,148 L115,148 L115,151 L114,151 L114,154 L112,154 L112,155 L111,155 L111,157 L110,157 L110,158 L108,158 L108,159 L106,159 L106,161 L104,161 L104,162 L90,162 L90,161 L87,161 L87,159 L86,159 L86,158 L84,158 L84,155 L82,155 L82,154 L81,154 L81,153 L80,153 L80,150 L78,150 L78,151 L77,151 L77,153 L76,153 L76,154 L74,154 L74,155 L72,155 L72,157 L61,157 L61,155 L59,155 L59,154 L57,154 L57,153 L56,153 L56,151 L55,151 L55,189 L53,189 L53,191 L43,191 L43,138 L22,138 L22,141 L23,141 L23,145 L22,145 L22,148 L21,148 L21,149 L19,149 L19,150 L13,150 L13,149 L12,149 L12,148 L10,148 L10,146 L9,146 L9,141 L10,141 L10,138 L0,138 L0,150 L-2,150 L-2,151 L-3,151 L-3,154 L-5,154 L-5,155 L-7,155 L-7,157 L-9,157 L-9,158 L-19,158 L-19,157 L-21,157 L-21,155 L-22,155 L-22,154 L-25,154 L-25,151 L-26,151 L-26,150 L-28,150 L-28,137 L-26,137 L-26,134 L-25,134 L-25,133 L-24,133 L-24,132 L-21,132 L-21,130 L-19,130 L-19,129 L-9,129 L-9,130 L-7,130 L-7,132 L-4,132 L-4,133 L-3,133 L-3,134 L-2,134 L-2,137 L0,137 L0,132 L1,132 L1,90 L2,90 L2,89 L10,89 L10,78 L0,78 L0,55 L-2,55 L-2,56 L-3,56 L-3,57 L-4,57 L-4,59 L-7,59 L-7,60 L-17,60 L-17,59 L-19,59 L-19,57 L-21,57 L-21,56 L-22,56 L-22,53 L-24,53 L-24,52 L-25,52 L-25,41 L-24,41 L-24,40 L-22,40 L-22,38 L-21,38 L-21,36 L-20,36 L-20,35 L-17,35 L-17,34 L-62,34 L-62,289 L-63,289 L-63,32 L0,32 Z " transform="translate(67,3)" style="fill: #F7E187;"/><path d="M0,0 L62,0 L62,9 L32,9 L32,11 L72,11 L72,52 L74,52 L74,51 L75,51 L75,50 L77,50 L77,49 L80,49 L80,47 L94,47 L94,49 L97,49 L97,50 L98,50 L98,51 L100,51 L100,52 L101,52 L101,54 L102,54 L102,55 L104,55 L104,58 L105,58 L105,62 L106,62 L106,70 L105,70 L105,73 L104,73 L104,76 L102,76 L102,77 L101,77 L101,79 L100,79 L100,80 L98,80 L98,81 L96,81 L96,83 L94,83 L94,84 L80,84 L80,83 L77,83 L77,81 L76,81 L76,80 L74,80 L74,77 L72,77 L72,76 L71,76 L71,75 L70,75 L70,72 L68,72 L68,73 L67,73 L67,75 L66,75 L66,76 L64,76 L64,77 L62,77 L62,79 L51,79 L51,77 L49,77 L49,76 L47,76 L47,75 L46,75 L46,73 L45,73 L45,111 L43,111 L43,113 L33,113 L33,60 L12,60 L12,63 L13,63 L13,67 L12,67 L12,70 L11,70 L11,71 L9,71 L9,72 L3,72 L3,71 L2,71 L2,70 L0,70 L0,68 L-1,68 L-1,63 L0,63 L0,60 L-10,60 L-10,72 L-12,72 L-12,73 L-13,73 L-13,76 L-15,76 L-15,77 L-17,77 L-17,79 L-19,79 L-19,80 L-29,80 L-29,79 L-31,79 L-31,77 L-32,77 L-32,76 L-35,76 L-35,73 L-36,73 L-36,72 L-38,72 L-38,59 L-36,59 L-36,56 L-35,56 L-35,55 L-34,55 L-34,54 L-31,54 L-31,52 L-29,52 L-29,51 L-19,51 L-19,52 L-17,52 L-17,54 L-14,54 L-14,55 L-13,55 L-13,56 L-12,56 L-12,59 L-10,59 L-10,54 L-9,54 L-9,12 L-8,12 L-8,11 L0,11 Z " transform="translate(77,81)" style="fill: #F6E18C;"/><path d="M0,0 L58,0 L58,31 L93,31 L93,39 L92,39 L92,38 L90,38 L90,37 L89,37 L89,35 L88,35 L88,34 L64,34 L64,35 L63,35 L63,37 L59,37 L59,41 L58,41 L58,39 L56,39 L56,38 L55,38 L55,37 L54,37 L54,35 L52,35 L52,34 L30,34 L30,35 L29,35 L29,37 L18,37 L18,35 L17,35 L17,34 L-5,34 L-5,35 L-6,35 L-6,37 L-9,37 L-9,39 L-10,39 L-10,41 L-12,41 L-12,60 L-10,60 L-10,62 L-9,62 L-9,67 L1,67 L1,52 L0,52 L0,47 L12,47 L12,67 L37,67 L37,52 L35,52 L35,47 L47,47 L47,67 L55,67 L55,63 L56,63 L56,62 L58,62 L58,60 L59,60 L59,67 L71,67 L71,47 L83,47 L83,67 L89,67 L89,64 L90,64 L90,63 L92,63 L92,62 L93,62 L93,71 L81,71 L81,80 L83,80 L83,157 L71,157 L71,80 L72,80 L72,71 L46,71 L46,80 L47,80 L47,157 L35,157 L35,80 L37,80 L37,71 L11,71 L11,80 L12,80 L12,157 L0,157 L0,80 L1,80 L1,71 L-13,71 L-13,31 L0,31 L0,20 L-1,20 L-1,21 L-3,21 L-3,24 L-4,24 L-4,25 L-6,25 L-6,26 L-8,26 L-8,28 L-18,28 L-18,26 L-21,26 L-21,25 L-22,25 L-22,24 L-23,24 L-23,22 L-25,22 L-25,21 L-26,21 L-26,18 L-27,18 L-27,10 L-26,10 L-26,8 L-25,8 L-25,7 L-23,7 L-23,4 L-21,4 L-21,3 L-20,3 L-20,1 L-8,1 L-8,3 L-5,3 L-5,4 L-4,4 L-4,5 L-3,5 L-3,8 L-1,8 L-1,9 L0,9 Z " transform="translate(68,212)" style="fill: #A5A5A5;"/><path d="M0,0 L41,0 L41,74 L0,74 L0,67 L2,67 L2,51 L0,51 L0,49 L2,49 L2,42 L0,42 L0,35 L1,35 L1,34 L2,34 L2,30 L0,30 Z " transform="translate(107,5)" style="fill: #FEEDA1;"/><path d="M0,0 L39,0 L39,47 L13,47 L13,48 L11,48 L11,12 L1,12 L1,47 L0,47 Z " transform="translate(109,93)" style="fill: #FEEEA2;"/><path d="M0,0 L14,0 L14,2 L17,2 L17,3 L18,3 L18,4 L20,4 L20,5 L21,5 L21,7 L22,7 L22,8 L24,8 L24,11 L25,11 L25,15 L26,15 L26,23 L25,23 L25,26 L24,26 L24,29 L22,29 L22,30 L21,30 L21,32 L20,32 L20,33 L18,33 L18,34 L16,34 L16,36 L14,36 L14,37 L0,37 L0,36 L-3,36 L-3,34 L-4,34 L-4,33 L-6,33 L-6,30 L-8,30 L-8,29 L-9,29 L-9,28 L-10,28 L-10,25 L-12,25 L-12,26 L-13,26 L-13,28 L-14,28 L-14,29 L-16,29 L-16,30 L-18,30 L-18,32 L-29,32 L-29,30 L-31,30 L-31,29 L-33,29 L-33,28 L-34,28 L-34,26 L-35,26 L-35,64 L-37,64 L-37,13 L-29,13 L-29,15 L-30,15 L-30,23 L-29,23 L-29,24 L-27,24 L-27,25 L-20,25 L-20,24 L-18,24 L-18,23 L-17,23 L-17,20 L-16,20 L-16,16 L-17,16 L-17,13 L-8,13 L-8,5 L-6,5 L-6,4 L-5,4 L-5,3 L-3,3 L-3,2 L0,2 Z " transform="translate(157,128)" style="fill: #8A8A88;"/><path d="M0,0 L12,0 L12,20 L16,20 L16,21 L12,21 L12,24 L11,24 L11,33 L12,33 L12,110 L0,110 L0,33 L2,33 L2,21 L-5,21 L-5,20 L2,20 L2,5 L0,5 Z " transform="translate(103,259)" style="fill: #8C8C8C;"/><path d="M0,0 L63,0 L63,23 L61,23 L61,24 L60,24 L60,25 L59,25 L59,27 L56,27 L56,28 L46,28 L46,27 L44,27 L44,25 L42,25 L42,24 L41,24 L41,21 L39,21 L39,20 L38,20 L38,9 L39,9 L39,8 L41,8 L41,6 L42,6 L42,4 L43,4 L43,3 L46,3 L46,2 L1,2 L1,257 L0,257 Z " transform="translate(4,35)" style="fill: #8D8D8D;"/><path d="M0,0 L10,0 L10,89 L0,89 Z " transform="translate(110,105)" style="fill: #F3F9D9;"/><path d="M0,0 L4,0 L4,7 L-4,7 L-4,8 L-5,8 L-5,50 L-6,50 L-6,55 L-8,55 L-8,52 L-9,52 L-9,51 L-10,51 L-10,50 L-13,50 L-13,48 L-15,48 L-15,47 L-25,47 L-25,48 L-27,48 L-27,50 L-30,50 L-30,51 L-31,51 L-31,52 L-32,52 L-32,55 L-34,55 L-34,68 L-32,68 L-32,69 L-31,69 L-31,72 L-28,72 L-28,73 L-27,73 L-27,75 L-25,75 L-25,76 L-15,76 L-15,75 L-13,75 L-13,73 L-11,73 L-11,72 L-9,72 L-9,69 L-8,69 L-8,68 L-6,68 L-6,56 L4,56 L4,59 L3,59 L3,64 L4,64 L4,66 L6,66 L6,67 L7,67 L7,68 L13,68 L13,67 L15,67 L15,66 L16,66 L16,63 L17,63 L17,59 L16,59 L16,56 L23,56 L23,58 L24,58 L24,66 L23,66 L23,68 L21,68 L21,69 L20,69 L20,71 L19,71 L19,72 L17,72 L17,73 L16,73 L16,75 L4,75 L4,73 L3,73 L3,72 L0,72 L0,69 L-1,69 L-1,68 L-2,68 L-2,69 L-4,69 L-4,72 L-5,72 L-5,73 L-6,73 L-6,75 L-8,75 L-8,76 L-9,76 L-9,77 L-11,77 L-11,79 L-14,79 L-14,80 L-27,80 L-27,79 L-28,79 L-28,77 L-31,77 L-31,76 L-32,76 L-32,75 L-34,75 L-34,73 L-35,73 L-35,72 L-36,72 L-36,69 L-38,69 L-38,67 L-39,67 L-39,56 L-38,56 L-38,54 L-36,54 L-36,51 L-35,51 L-35,50 L-34,50 L-34,47 L-31,47 L-31,46 L-30,46 L-30,45 L-27,45 L-27,43 L-13,43 L-13,45 L-10,45 L-10,46 L-9,46 L-9,47 L-8,47 L-8,48 L-6,48 L-6,22 L-8,22 L-8,20 L-9,20 L-9,8 L-8,8 L-8,7 L-6,7 L-6,5 L-5,5 L-5,4 L-4,4 L-4,3 L-2,3 L-2,1 L0,1 Z " transform="translate(73,85)" style="fill: #8B8B8B;"/><path d="M0,0 L45,0 L45,2 L38,2 L38,17 L39,17 L39,19 L45,19 L45,21 L-2,21 L-2,19 L6,19 L6,16 L7,16 L7,3 L6,3 L6,2 L0,2 Z " transform="translate(75,217)" style="fill: #343434;"/><path d="M0,0 L63,0 L63,2 L19,2 L19,3 L20,3 L20,4 L21,4 L21,6 L22,6 L22,7 L24,7 L24,9 L25,9 L25,20 L24,20 L24,23 L22,23 L22,24 L21,24 L21,25 L20,25 L20,27 L17,27 L17,28 L7,28 L7,27 L4,27 L4,25 L3,25 L3,24 L2,24 L2,23 L0,23 Z " transform="translate(149,35)" style="fill: #898989;"/><path d="M0,0 L10,0 L10,1 L12,1 L12,3 L15,3 L15,4 L16,4 L16,5 L17,5 L17,8 L19,8 L19,21 L17,21 L17,22 L16,22 L16,25 L14,25 L14,26 L12,26 L12,28 L10,28 L10,29 L0,29 L0,28 L-2,28 L-2,26 L-3,26 L-3,25 L-6,25 L-6,22 L-7,22 L-7,21 L-9,21 L-9,8 L-7,8 L-7,5 L-6,5 L-6,4 L-5,4 L-5,3 L-2,3 L-2,1 L0,1 Z " transform="translate(48,132)" style="fill: #FDFDFD;"/><path d="M0,0 L11,0 L11,1 L13,1 L13,3 L15,3 L15,4 L16,4 L16,5 L17,5 L17,7 L19,7 L19,9 L20,9 L20,20 L19,20 L19,22 L17,22 L17,24 L16,24 L16,25 L15,25 L15,26 L13,26 L13,28 L10,28 L10,29 L2,29 L2,28 L-1,28 L-1,26 L-4,26 L-4,25 L-5,25 L-5,24 L-6,24 L-6,21 L-7,21 L-7,17 L-9,17 L-9,11 L-7,11 L-7,8 L-6,8 L-6,5 L-5,5 L-5,4 L-4,4 L-4,3 L-2,3 L-2,1 L0,1 Z " transform="translate(158,132)" style="fill: #FDFDFD;"/><path d="M0,0 L7,0 L7,1 L11,1 L11,2 L12,2 L12,4 L13,4 L13,5 L15,5 L15,6 L16,6 L16,9 L17,9 L17,21 L16,21 L16,23 L15,23 L15,25 L13,25 L13,26 L12,26 L12,27 L9,27 L9,28 L-2,28 L-2,27 L-5,27 L-5,26 L-6,26 L-6,25 L-8,25 L-8,23 L-9,23 L-9,21 L-10,21 L-10,17 L-12,17 L-12,11 L-10,11 L-10,8 L-9,8 L-9,6 L-8,6 L-8,4 L-5,4 L-5,2 L-4,2 L-4,1 L0,1 Z " transform="translate(26,88)" style="fill: #FCFCFC;"/><path d="M0,0 L5,0 L5,1 L9,1 L9,2 L11,2 L11,4 L13,4 L13,5 L14,5 L14,6 L15,6 L15,9 L17,9 L17,19 L15,19 L15,22 L14,22 L14,23 L13,23 L13,26 L10,26 L10,27 L7,27 L7,28 L-3,28 L-3,27 L-6,27 L-6,26 L-7,26 L-7,25 L-8,25 L-8,23 L-10,23 L-10,22 L-11,22 L-11,18 L-12,18 L-12,10 L-11,10 L-11,8 L-10,8 L-10,5 L-8,5 L-8,4 L-7,4 L-7,2 L-4,2 L-4,1 L0,1 Z " transform="translate(185,88)" style="fill: #FDFDFD;"/><path d="M0,0 L5,0 L5,1 L9,1 L9,3 L10,3 L10,4 L11,4 L11,5 L13,5 L13,7 L14,7 L14,8 L15,8 L15,20 L14,20 L14,22 L13,22 L13,24 L11,24 L11,25 L10,25 L10,26 L8,26 L8,28 L-3,28 L-3,26 L-6,26 L-6,25 L-7,25 L-7,24 L-8,24 L-8,22 L-9,22 L-9,20 L-11,20 L-11,9 L-9,9 L-9,7 L-8,7 L-8,5 L-7,5 L-7,4 L-6,4 L-6,3 L-3,3 L-3,1 L0,1 Z " transform="translate(160,212)" style="fill: #888888;"/><path d="M0,0 L8,0 L8,1 L11,1 L11,2 L13,2 L13,4 L15,4 L15,5 L16,5 L16,8 L17,8 L17,10 L18,10 L18,17 L17,17 L17,19 L16,19 L16,22 L15,22 L15,23 L13,23 L13,25 L11,25 L11,26 L8,26 L8,27 L0,27 L0,26 L-2,26 L-2,25 L-4,25 L-4,23 L-6,23 L-6,21 L-8,21 L-8,18 L-9,18 L-9,9 L-8,9 L-8,6 L-6,6 L-6,5 L-5,5 L-5,4 L-4,4 L-4,2 L-2,2 L-2,1 L0,1 Z " transform="translate(136,177)" style="fill: #898989;"/><path d="M0,0 L8,0 L8,1 L10,1 L10,2 L13,2 L13,4 L14,4 L14,5 L16,5 L16,8 L17,8 L17,10 L18,10 L18,17 L17,17 L17,19 L16,19 L16,22 L14,22 L14,23 L13,23 L13,25 L10,25 L10,26 L8,26 L8,27 L0,27 L0,26 L-3,26 L-3,25 L-4,25 L-4,23 L-5,23 L-5,22 L-7,22 L-7,21 L-8,21 L-8,18 L-9,18 L-9,9 L-8,9 L-8,6 L-7,6 L-7,5 L-5,5 L-5,4 L-4,4 L-4,2 L-3,2 L-3,1 L0,1 Z " transform="translate(72,177)" style="fill: #8A8A8A;"/><path d="M0,0 L12,0 L12,2 L15,2 L15,3 L16,3 L16,4 L17,4 L17,7 L19,7 L19,9 L20,9 L20,16 L19,16 L19,20 L17,20 L17,23 L16,23 L16,24 L14,24 L14,25 L12,25 L12,27 L2,27 L2,25 L-1,25 L-1,24 L-2,24 L-2,23 L-3,23 L-3,21 L-5,21 L-5,20 L-6,20 L-6,17 L-7,17 L-7,9 L-6,9 L-6,7 L-5,7 L-5,6 L-3,6 L-3,3 L-1,3 L-1,2 L0,2 Z " transform="translate(48,213)" style="fill: #8A8A8A;"/><path d="M0,0 L62,0 L62,9 L0,9 Z " transform="translate(77,81)" style="fill: #F6E18C;"/><path d="M0,0 L1,0 L1,30 L58,30 L58,31 L93,31 L93,39 L92,39 L92,38 L90,38 L90,37 L89,37 L89,35 L88,35 L88,34 L64,34 L64,35 L63,35 L63,37 L59,37 L59,41 L58,41 L58,39 L56,39 L56,38 L55,38 L55,37 L54,37 L54,35 L52,35 L52,34 L30,34 L30,35 L29,35 L29,37 L18,37 L18,35 L17,35 L17,34 L-4,34 L-4,33 L-13,33 L-13,31 L0,31 L0,20 L-1,20 L-1,17 L0,17 L0,10 L-1,10 L-1,9 L0,9 Z " transform="translate(68,212)" style="fill: #686868;"/><path d="M0,0 L13,0 L13,1 L15,1 L15,2 L17,2 L17,4 L19,4 L19,5 L21,5 L21,6 L22,6 L22,9 L23,9 L23,12 L25,12 L25,14 L26,14 L26,22 L25,22 L25,26 L23,26 L23,29 L22,29 L22,30 L21,30 L21,31 L19,31 L19,32 L18,32 L18,34 L17,34 L17,35 L14,35 L14,36 L10,36 L10,38 L1,38 L1,36 L-2,36 L-2,35 L-4,35 L-4,34 L-6,34 L-6,32 L-7,32 L-7,31 L-8,31 L-8,30 L-10,30 L-10,27 L-11,27 L-11,26 L-12,26 L-12,12 L-11,12 L-11,9 L-10,9 L-10,8 L-8,8 L-8,6 L-7,6 L-7,5 L-6,5 L-6,4 L-4,4 L-4,2 L-3,2 L-3,1 L0,1 Z M4,4 L4,5 L0,5 L0,6 L-3,6 L-3,8 L-4,8 L-4,9 L-6,9 L-6,12 L-7,12 L-7,14 L-8,14 L-8,22 L-7,22 L-7,26 L-6,26 L-6,27 L-4,27 L-4,29 L-3,29 L-3,30 L-2,30 L-2,31 L1,31 L1,32 L11,32 L11,31 L14,31 L14,30 L17,30 L17,27 L18,27 L18,26 L19,26 L19,23 L21,23 L21,13 L19,13 L19,10 L18,10 L18,9 L17,9 L17,8 L15,8 L15,6 L13,6 L13,5 L9,5 L9,4 Z " transform="translate(181,84)" style="fill: #878787;"/><path d="M0,0 L10,0 L10,1 L14,1 L14,2 L17,2 L17,4 L18,4 L18,5 L19,5 L19,6 L21,6 L21,8 L22,8 L22,10 L23,10 L23,13 L24,13 L24,23 L23,23 L23,26 L22,26 L22,29 L21,29 L21,30 L19,30 L19,32 L17,32 L17,34 L15,34 L15,35 L13,35 L13,36 L10,36 L10,38 L1,38 L1,36 L-3,36 L-3,35 L-4,35 L-4,34 L-7,34 L-7,32 L-8,32 L-8,31 L-10,31 L-10,29 L-11,29 L-11,27 L-12,27 L-12,23 L-14,23 L-14,13 L-12,13 L-12,10 L-11,10 L-11,8 L-10,8 L-10,6 L-8,6 L-8,5 L-7,5 L-7,4 L-6,4 L-6,2 L-3,2 L-3,1 L0,1 Z M2,4 L2,5 L-2,5 L-2,6 L-3,6 L-3,8 L-6,8 L-6,10 L-7,10 L-7,12 L-8,12 L-8,15 L-10,15 L-10,21 L-8,21 L-8,25 L-7,25 L-7,27 L-6,27 L-6,29 L-4,29 L-4,30 L-3,30 L-3,31 L0,31 L0,32 L11,32 L11,31 L14,31 L14,30 L15,30 L15,29 L17,29 L17,27 L18,27 L18,25 L19,25 L19,13 L18,13 L18,10 L17,10 L17,9 L15,9 L15,8 L14,8 L14,6 L13,6 L13,5 L9,5 L9,4 Z " transform="translate(24,84)" style="fill: #888888;"/><path d="M0,0 L1,0 L1,74 L82,74 L82,76 L73,76 L73,80 L76,80 L76,81 L78,81 L78,83 L81,83 L81,84 L82,84 L82,85 L84,85 L84,88 L85,88 L85,91 L86,91 L86,97 L85,97 L85,101 L84,101 L84,102 L82,102 L82,87 L42,87 L42,85 L72,85 L72,76 L0,76 Z " transform="translate(67,5)" style="fill: #E1C043;"/><path d="M0,0 L32,0 L32,2 L72,2 L72,51 L63,51 L63,54 L64,54 L64,58 L63,58 L63,61 L62,61 L62,62 L60,62 L60,63 L53,63 L53,62 L51,62 L51,61 L50,61 L50,53 L51,53 L51,51 L45,51 L45,50 L71,50 L71,3 L-8,3 L-8,2 L0,2 Z " transform="translate(77,90)" style="fill: #F4D252;"/><path d="M0,0 L49,0 L49,22 L47,22 L47,20 L41,20 L41,18 L40,18 L40,3 L47,3 L47,1 L2,1 L2,3 L8,3 L8,4 L9,4 L9,17 L8,17 L8,20 L0,20 Z " transform="translate(73,216)" style="fill: #595959;"/><path d="M0,0 L4,0 L4,7 L-4,7 L-4,8 L-5,8 L-5,50 L-6,50 L-6,55 L-8,55 L-8,52 L-9,52 L-9,51 L-10,51 L-10,50 L-13,50 L-13,48 L-15,48 L-15,47 L-25,47 L-25,48 L-27,48 L-27,50 L-30,50 L-30,51 L-31,51 L-31,52 L-32,52 L-32,54 L-34,54 L-34,52 L-35,52 L-35,53 L-36,53 L-36,51 L-35,51 L-35,50 L-34,50 L-34,47 L-31,47 L-31,46 L-30,46 L-30,45 L-27,45 L-27,43 L-13,43 L-13,45 L-10,45 L-10,46 L-9,46 L-9,47 L-8,47 L-8,48 L-6,48 L-6,22 L-8,22 L-8,20 L-9,20 L-9,8 L-8,8 L-8,7 L-6,7 L-6,5 L-5,5 L-5,4 L-4,4 L-4,3 L-2,3 L-2,1 L0,1 Z " transform="translate(73,85)" style="fill: #8A8A8A;"/><path d="M0,0 L30,0 L30,9 L0,9 L0,7 L-2,7 L-2,5 L0,5 Z " transform="translate(109,81)" style="fill: #FEEDA1;"/><path d="M0,0 L1,0 L1,73 L10,73 L10,0 L12,0 L12,77 L0,77 Z " transform="translate(139,292)" style="fill: #CECECE;"/><path d="M0,0 L2,0 L2,73 L11,73 L11,0 L12,0 L12,77 L0,77 Z " transform="translate(103,292)" style="fill: #C4C4C4;"/><path d="M0,0 L26,0 L26,9 L0,9 Z " transform="translate(114,283)" style="fill: #343434;"/><path d="M0,0 L26,0 L26,9 L0,9 Z " transform="translate(79,283)" style="fill: #353535;"/><path d="M0,0 L57,0 L57,1 L92,1 L92,9 L91,9 L91,8 L89,8 L89,7 L88,7 L88,5 L87,5 L87,4 L63,4 L63,5 L62,5 L62,7 L58,7 L58,11 L57,11 L57,9 L55,9 L55,8 L54,8 L54,7 L53,7 L53,5 L51,5 L51,4 L50,4 L50,3 L54,3 L54,1 L0,1 Z " transform="translate(69,242)" style="fill: #939393;"/><path d="M0,0 L1,0 L1,73 L11,73 L11,0 L12,0 L12,77 L0,77 Z " transform="translate(68,292)" style="fill: #C1C1C1;"/><path d="M0,0 L19,0 L19,8 L17,8 L17,10 L16,10 L16,12 L11,12 L11,10 L9,10 L9,9 L6,9 L6,10 L3,10 L3,12 L2,12 L2,13 L0,13 L0,10 L2,10 L2,9 L4,9 L4,8 L6,8 L6,6 L7,6 L7,4 L0,4 Z " transform="translate(128,216)" style="fill: #9B9B9B;"/><path d="M0,0 L6,0 L6,2 L8,2 L8,3 L9,3 L9,5 L11,5 L11,9 L9,9 L9,12 L8,12 L8,13 L7,13 L7,15 L0,15 L0,13 L-2,13 L-2,12 L-4,12 L-4,4 L-2,4 L-2,2 L0,2 Z " transform="translate(73,183)" style="fill: #D9D9D9;"/><path d="M0,0 L6,0 L6,2 L8,2 L8,3 L10,3 L10,5 L11,5 L11,9 L10,9 L10,12 L8,12 L8,13 L7,13 L7,15 L0,15 L0,13 L-2,13 L-2,12 L-3,12 L-3,4 L-2,4 L-2,2 L0,2 Z " transform="translate(137,183)" style="fill: #DADADA;"/><path d="M0,0 L8,0 L8,1 L9,1 L9,3 L11,3 L11,11 L9,11 L9,12 L8,12 L8,13 L0,13 L0,12 L-1,12 L-1,11 L-3,11 L-3,3 L-1,3 L-1,1 L0,1 Z " transform="translate(157,43)" style="fill: #FBFBFB;"/><path d="M0,0 L8,0 L8,1 L9,1 L9,4 L11,4 L11,9 L9,9 L9,12 L7,12 L7,13 L0,13 L0,12 L-1,12 L-1,10 L-3,10 L-3,8 L-4,8 L-4,4 L-3,4 L-3,2 L-1,2 L-1,1 L0,1 Z " transform="translate(51,220)" style="fill: #FCFCFC;"/><path d="M0,0 L8,0 L8,1 L9,1 L9,3 L11,3 L11,4 L12,4 L12,8 L11,8 L11,11 L9,11 L9,12 L8,12 L8,13 L1,13 L1,12 L-1,12 L-1,9 L-3,9 L-3,4 L-1,4 L-1,1 L0,1 Z " transform="translate(51,43)" style="fill: #FCFCFC;"/><path d="M0,0 L8,0 L8,1 L10,1 L10,2 L11,2 L11,10 L10,10 L10,12 L8,12 L8,13 L0,13 L0,12 L-1,12 L-1,10 L-2,10 L-2,2 L-1,2 L-1,1 L0,1 Z " transform="translate(158,220)" style="fill: #FCFCFC;"/><path d="M0,0 L12,0 L12,3 L13,3 L13,7 L12,7 L12,10 L11,10 L11,11 L9,11 L9,12 L2,12 L2,11 L0,11 L0,10 L-1,10 L-1,2 L0,2 Z " transform="translate(128,141)" style="fill: #DADADA;"/><path d="M0,0 L12,0 L12,3 L13,3 L13,7 L12,7 L12,10 L11,10 L11,11 L9,11 L9,12 L3,12 L3,11 L2,11 L2,10 L0,10 L0,8 L-1,8 L-1,3 L0,3 Z " transform="translate(77,141)" style="fill: #FCFCFC;"/><path d="M0,0 L9,0 L9,1 L8,1 L8,2 L7,2 L7,4 L4,4 L4,6 L3,6 L3,8 L1,8 L1,27 L3,27 L3,29 L4,29 L4,34 L9,34 L9,35 L14,35 L14,38 L0,38 Z " transform="translate(55,245)" style="fill: #D2D2D2;"/><path d="M0,0 L4,0 L4,7 L-4,7 L-4,8 L-5,8 L-5,50 L-6,50 L-6,22 L-8,22 L-8,20 L-9,20 L-9,8 L-8,8 L-8,7 L-6,7 L-6,5 L-5,5 L-5,4 L-4,4 L-4,3 L-2,3 L-2,1 L0,1 Z " transform="translate(73,85)" style="fill: #C0A542;"/><path d="M0,0 L1,0 L1,46 L41,46 L41,47 L42,47 L42,48 L-1,48 L-1,42 L0,42 Z " transform="translate(68,93)" style="fill: #F3D357;"/><path d="M0,0 L42,0 L42,3 L43,3 L43,6 L44,6 L44,12 L43,12 L43,16 L42,16 L42,17 L40,17 L40,2 L0,2 Z " transform="translate(109,90)" style="fill: #E9C94D;"/><path d="M0,0 L1,0 L1,73 L10,73 L10,77 L0,77 Z " transform="translate(139,292)" style="fill: #B5B5B5;"/><path d="M0,0 L34,0 L34,8 L33,8 L33,7 L31,7 L31,6 L30,6 L30,4 L29,4 L29,3 L7,3 L7,2 L0,2 Z " transform="translate(127,243)" style="fill: #696969;"/><path d="M0,0 L7,0 L7,13 L6,13 L6,16 L0,16 Z " transform="translate(75,220)" style="fill: #D0D0D0;"/><path d="M0,0 L1,0 L1,7 L8,7 L8,8 L13,8 L13,11 L-11,11 L-11,8 L-7,8 L-7,7 L-3,7 L-3,3 L-2,3 L-2,2 L0,2 Z " transform="translate(126,272)" style="fill: #FCFCFC;"/><path d="M0,0 L9,0 L9,3 L1,3 L1,4 L0,4 L0,7 L1,7 L1,8 L2,8 L2,10 L5,10 L5,11 L7,11 L7,12 L9,12 L9,19 L7,19 L7,20 L6,20 L6,21 L-3,21 L-3,19 L6,19 L6,13 L5,13 L5,12 L2,12 L2,11 L0,11 L0,10 L-2,10 L-2,8 L-3,8 L-3,3 L-2,3 L-2,2 L0,2 Z " transform="translate(20,247)" style="fill: #E1E1E1;"/><path d="M0,0 L6,0 L6,14 L-1,14 L-1,2 L0,2 Z " transform="translate(114,220)" style="fill: #DADADA;"/><path d="M0,0 L47,0 L47,2 L3,2 L3,3 L1,3 L1,2 L0,2 Z " transform="translate(165,35)" style="fill: #6C6C6C;"/><path d="M0,0 L47,0 L47,2 L46,2 L46,3 L45,3 L45,2 L0,2 Z " transform="translate(5,35)" style="fill: #6D6D6D;"/><path d="M0,0 L3,0 L3,2 L5,2 L5,0 L10,0 L10,10 L5,10 L5,8 L9,8 L9,6 L6,6 L6,3 L5,3 L5,7 L3,7 L3,8 L2,8 L2,10 L0,10 L0,8 L-2,8 L-2,2 L0,2 Z " transform="translate(96,222)" style="fill: #939393;"/><path d="M0,0 L13,0 L13,1 L20,1 L20,4 L-5,4 L-5,1 L0,1 Z " transform="translate(85,279)" style="fill: #FAFAFA;"/><path d="M0,0 L1,0 L1,8 L9,8 L9,10 L8,10 L8,12 L6,12 L6,13 L4,13 L4,14 L2,14 L2,13 L1,13 L1,30 L0,30 Z " transform="translate(126,212)" style="fill: #343434;"/><path d="M0,0 L2,0 L2,22 L0,22 L0,20 L-6,20 L-6,18 L0,18 L0,4 L-6,4 L-6,6 L-7,6 L-7,3 L0,3 Z " transform="translate(120,216)" style="fill: #828282;"/><path d="M0,0 L3,0 L3,5 L8,5 L8,6 L13,6 L13,9 L0,9 Z " transform="translate(56,274)" style="fill: #FAFAFA;"/><path d="M0,0 L1,0 L1,9 L-11,9 L-11,6 L-6,6 L-6,5 L-3,5 L-3,2 L-2,2 L-2,1 L0,1 Z " transform="translate(160,274)" style="fill: #F3F3F3;"/><path d="M0,0 L3,0 L3,2 L4,2 L4,3 L6,3 L6,4 L7,4 L7,5 L8,5 L8,7 L-5,7 L-5,5 L-4,5 L-4,4 L-2,4 L-2,3 L-1,3 L-1,2 L0,2 Z " transform="translate(90,272)" style="fill: #2F2F2F;"/><path d="M0,0 L15,0 L15,1 L13,1 L13,2 L12,2 L12,4 L8,4 L8,8 L7,8 L7,6 L5,6 L5,5 L4,5 L4,4 L3,4 L3,2 L1,2 L1,1 L0,1 Z " transform="translate(119,245)" style="fill: #F2F2F2;"/><path d="M0,0 L2,0 L2,3 L3,3 L3,6 L4,6 L4,12 L3,12 L3,16 L2,16 L2,17 L0,17 Z " transform="translate(149,90)" style="fill: #868685;"/><path d="M0,0 L10,0 L10,5 L0,5 Z " transform="translate(139,259)" style="fill: #BABABA;"/><path d="M0,0 L14,0 L14,1 L13,1 L13,2 L12,2 L12,4 L1,4 L1,2 L0,2 Z " transform="translate(85,245)" style="fill: #DDDDDD;"/><path d="M0,0 L10,0 L10,1 L1,1 L1,5 L4,5 L4,6 L6,6 L6,8 L9,8 L9,9 L10,9 L10,10 L0,10 Z " transform="translate(139,80)" style="fill: #938C73;"/><path d="M0,0 L11,0 L11,4 L-1,4 L-1,1 L0,1 Z " transform="translate(69,365)" style="fill: #C2C2C2;"/><path d="M0,0 L3,0 L3,2 L4,2 L4,4 L6,4 L6,6 L-13,6 L-13,4 L2,4 L2,1 L0,1 Z " transform="translate(141,232)" style="fill: #C4C4C4;"/><path d="M0,0 L11,0 L11,4 L0,4 Z " transform="translate(175,262)" style="fill: #A6A6A6;"/><path d="M0,0 L2,0 L2,15 L0,15 L0,13 L-1,13 L-1,1 L0,1 Z " transform="translate(65,92)" style="fill: #878787;"/><path d="M0,0 L10,0 L10,4 L0,4 Z " transform="translate(139,365)" style="fill: #C1C1C1;"/><path d="M0,0 L10,0 L10,4 L0,4 Z " transform="translate(69,259)" style="fill: #C1C1C1;"/><path d="M0,0 L15,0 L15,3 L14,3 L14,2 L7,2 L7,7 L5,7 L5,5 L6,5 L6,2 L0,2 Z " transform="translate(130,217)" style="fill: #FEFEFE;"/><path d="M0,0 L8,0 L8,1 L7,1 L7,2 L6,2 L6,4 L3,4 L3,6 L2,6 L2,8 L0,8 Z " transform="translate(56,245)" style="fill: #F2F2F2;"/><path d="M0,0 L9,0 L9,4 L0,4 Z " transform="translate(105,259)" style="fill: #C1C1C1;"/><path d="M0,0 L8,0 L8,2 L7,2 L7,3 L4,3 L4,4 L3,4 L3,6 L2,6 L2,7 L0,7 Z " transform="translate(149,35)" style="fill: #6B6B6B;"/><path d="M0,0 L2,0 L2,6 L0,6 L0,7 L-1,7 L-1,8 L-10,8 L-10,6 L-1,6 L-1,4 L0,4 Z " transform="translate(27,260)" style="fill: #EDEDED;"/><path d="M0,0 L4,0 L4,5 L-5,5 L-5,4 L-4,4 L-4,3 L-2,3 L-2,1 L0,1 Z " transform="translate(73,85)" style="fill: #848484;"/><path d="M0,0 L2,0 L2,3 L-13,3 L-13,1 L0,1 Z " transform="translate(141,233)" style="fill: #434343;"/><path d="M0,0 L8,0 L8,6 L6,6 L6,4 L4,4 L4,3 L1,3 L1,2 L0,2 Z " transform="translate(59,35)" style="fill: #545454;"/><path d="M0,0 L7,0 L7,6 L6,6 L6,5 L4,5 L4,4 L3,4 L3,2 L2,2 L2,1 L0,1 Z " transform="translate(154,245)" style="fill: #F5F5F5;"/><path d="M0,0 L3,0 L3,10 L1,10 L1,3 L-1,3 L-1,2 L0,2 Z " transform="translate(89,222)" style="fill: #BFBFBF;"/><path d="M0,0 L5,0 L5,4 L4,4 L4,5 L0,5 Z " transform="translate(139,220)" style="fill: #313131;"/><path d="M0,0 L8,0 L8,1 L6,1 L6,2 L5,2 L5,4 L2,4 L2,2 L1,2 L1,1 L0,1 Z " transform="translate(88,249)" style="fill: #313131;"/><path d="M0,0 L1,0 L1,2 L3,2 L3,3 L0,3 L0,4 L-3,4 L-3,6 L-4,6 L-4,7 L-6,7 L-6,4 L-4,4 L-4,3 L-2,3 L-2,2 L0,2 Z " transform="translate(134,222)" style="fill: #CECECE;"/><path d="M0,0 L5,0 L5,1 L4,1 L4,2 L3,2 L3,4 L2,4 L2,5 L0,5 Z " transform="translate(149,37)" style="fill: #333333;"/></svg>